<svg width="24" height="25" viewBox="0 0 24 25" fill="none" xmlns="http://www.w3.org/2000/svg">
<path d="M10.7397 24.3333V22.1111C8.49101 21.8519 6.56164 20.8935 4.95159 19.2361C3.34153 17.5787 2.41058 15.5926 2.15873 13.2778H0V11.0556H2.15873C2.41058 8.74074 3.34153 6.75463 4.95159 5.09722C6.56164 3.43982 8.49101 2.48148 10.7397 2.22222V0H12.8984V2.22222C15.1471 2.48148 17.0765 3.43982 18.6865 5.09722C20.2966 6.75463 21.2275 8.74074 21.4794 11.0556H23.6381V13.2778H21.4794C21.2275 15.5926 20.2966 17.5787 18.6865 19.2361C17.0765 20.8935 15.1471 21.8519 12.8984 22.1111V24.3333H10.7397ZM17.1619 17.6667C18.637 16.1481 19.3746 14.3148 19.3746 12.1667C19.3746 10.0185 18.637 8.18519 17.1619 6.66667C15.6868 5.14815 13.9058 4.38889 11.819 4.38889C9.73228 4.38889 7.95132 5.14815 6.47619 6.66667C5.00106 8.18519 4.26349 10.0185 4.26349 12.1667C4.26349 14.3148 5.00106 16.1481 6.47619 17.6667C7.95132 19.1852 9.73228 19.9444 11.819 19.9444C13.9058 19.9444 15.6868 19.1852 17.1619 17.6667ZM8.76984 15.3056C7.92434 14.4352 7.50159 13.3889 7.50159 12.1667C7.50159 10.9444 7.92434 9.89815 8.76984 9.02778C9.61534 8.15741 10.6317 7.72222 11.819 7.72222C13.0063 7.72222 14.0228 8.15741 14.8683 9.02778C15.7138 9.89815 16.1365 10.9444 16.1365 12.1667C16.1365 13.3889 15.7138 14.4352 14.8683 15.3056C14.0228 16.1759 13.0063 16.6111 11.819 16.6111C10.6317 16.6111 9.61534 16.1759 8.76984 15.3056ZM13.3437 13.7361C13.7664 13.3009 13.9778 12.7778 13.9778 12.1667C13.9778 11.5556 13.7664 11.0324 13.3437 10.5972C12.9209 10.162 12.4127 9.94445 11.819 9.94445C11.2254 9.94445 10.7172 10.162 10.2944 10.5972C9.87169 11.0324 9.66032 11.5556 9.66032 12.1667C9.66032 12.7778 9.87169 13.3009 10.2944 13.7361C10.7172 14.1713 11.2254 14.3889 11.819 14.3889C12.4127 14.3889 12.9209 14.1713 13.3437 13.7361Z" fill="#303030"/>
</svg>
