<svg width="18" height="20" viewBox="0 0 18 20" fill="none" xmlns="http://www.w3.org/2000/svg">
<path d="M4.2998 8.67505V5.17505C4.2998 4.01473 4.76074 2.90193 5.58121 2.08146C6.40168 1.26099 7.51448 0.800049 8.6748 0.800049C9.83513 0.800049 10.9479 1.26099 11.7684 2.08146C12.5889 2.90193 13.0498 4.01473 13.0498 5.17505V8.67505M2.5498 8.67505H14.7998C15.7663 8.67505 16.5498 9.45855 16.5498 10.425V16.55C16.5498 17.5165 15.7663 18.3 14.7998 18.3H2.5498C1.58331 18.3 0.799805 17.5165 0.799805 16.55V10.425C0.799805 9.45855 1.58331 8.67505 2.5498 8.67505Z" stroke="#1E1E1E" stroke-width="1.6" stroke-linecap="round" stroke-linejoin="round"/>
</svg>
